# xmcd
#
# Track frame offsets: 
#        150
#        16199
#        27769
#        47022
#        62492
#        76024
#        91992
#        105977
#        119627
#        132139
#        146177
#        161939
#        176957
#        191977
#        205557
#        221974
#
# Disc length: 3144 seconds
#
# Revision: 0
# Processed by: cddbd v1.5.2PL0 Copyright (c) Steve Scherf et al.
# Submitted via: ExactAudioCopy v0.99pb3
#
DISCID=e20c4610
DTITLE=Joao Mulato e Pardinho - Globo Rural
DYEAR=2006
DGENRE=Country
TTITLE0=A Viola e a Caneta
TTITLE1=Amor Bandido
TTITLE2=Carro Pesado (Tributo a Tiao Carreiro)
TTITLE3=Contrato Vencido
TTITLE4=Mina de Ouro
TTITLE5=O Maior Calote
TTITLE6=Nas Maos de Deus
TTITLE7=Nao Tem Outro Jeito (A Dor da Paixao)
TTITLE8=Olho Gordo
TTITLE9=Pagode da Hora
TTITLE10=Peao de Rodeio
TTITLE11=Prova de Fogo
TTITLE12=Viola Brasileira
TTITLE13=Capiau
TTITLE14=Fazendeiro Feliz
TTITLE15=Cobertor de Orelha
EXTD=
EXTT0=
EXTT1=
EXTT2=
EXTT3=
EXTT4=
EXTT5=
EXTT6=
EXTT7=
EXTT8=
EXTT9=
EXTT10=
EXTT11=
EXTT12=
EXTT13=
EXTT14=
EXTT15=
PLAYORDER=
